<svg viewBox="0 0 32 32" fill="none" xmlns="http://www.w3.org/2000/svg">
<path d="M26.6663 6.66687C26.6663 8.876 21.8907 10.6669 15.9997 10.6669C10.1086 10.6669 5.33301 8.876 5.33301 6.66687M26.6663 6.66687C26.6663 4.45774 21.8907 2.66687 15.9997 2.66687C10.1086 2.66687 5.33301 4.45774 5.33301 6.66687M26.6663 6.66687V25.3335C26.6663 27.5427 21.8907 29.3335 15.9997 29.3335C10.1086 29.3335 5.33301 27.5427 5.33301 25.3335V6.66687M26.6663 12.889C26.6663 15.0982 21.8907 16.889 15.9997 16.889C10.1086 16.889 5.33301 15.0982 5.33301 12.889M26.6663 19.1069C26.6663 21.3161 21.8907 23.1069 15.9997 23.1069C10.1086 23.1069 5.33301 21.3161 5.33301 19.1069" stroke="white" stroke-width="1.5" stroke-linecap="round" stroke-linejoin="round"/>
<path d="M26.6663 6.66687C26.6663 8.876 21.8907 10.6669 15.9997 10.6669C10.1086 10.6669 5.33301 8.876 5.33301 6.66687M26.6663 6.66687C26.6663 4.45774 21.8907 2.66687 15.9997 2.66687C10.1086 2.66687 5.33301 4.45774 5.33301 6.66687M26.6663 6.66687V25.3335C26.6663 27.5427 21.8907 29.3335 15.9997 29.3335C10.1086 29.3335 5.33301 27.5427 5.33301 25.3335V6.66687M26.6663 12.889C26.6663 15.0982 21.8907 16.889 15.9997 16.889C10.1086 16.889 5.33301 15.0982 5.33301 12.889M26.6663 19.1069C26.6663 21.3161 21.8907 23.1069 15.9997 23.1069C10.1086 23.1069 5.33301 21.3161 5.33301 19.1069" stroke="url(#paint0_linear_4302_20709)" stroke-width="1.5" stroke-linecap="round" stroke-linejoin="round"/>
<defs>
<linearGradient id="paint0_linear_4302_20709" x1="26.6663" y1="59.6669" x2="-14.7856" y2="13.8565" gradientUnits="userSpaceOnUse">
<stop stop-color="#212121"/>
<stop offset="1" stop-color="white"/>
</linearGradient>
</defs>
</svg>
