<svg viewBox="0 0 48 48" fill="none" xmlns="http://www.w3.org/2000/svg">
<path fill-rule="evenodd" clip-rule="evenodd" d="M25.9185 42.0922C25.282 42.7234 24.6407 43.3593 24 44C23.3607 43.3607 22.7214 42.7267 22.0862 42.0968L22.0818 42.0925C14.7699 34.8418 8 28.1287 8 20C8 11.1634 15.1634 4 24 4C32.8366 4 40 11.1634 40 20C40 28.1287 33.2304 34.8415 25.9185 42.0922ZM24 26C27.3137 26 30 23.3137 30 20C30 16.6863 27.3137 14 24 14C20.6863 14 18 16.6863 18 20C18 23.3137 20.6863 26 24 26Z" fill="#34503F"/>
<path d="M30 20C30 23.3137 27.3137 26 24 26C20.6863 26 18 23.3137 18 20C18 16.6863 20.6863 14 24 14C27.3137 14 30 16.6863 30 20Z" fill="#DBEDC5"/>
</svg>
